<svg xmlns="http://www.w3.org/2000/svg" xmlns:xlink="http://www.w3.org/1999/xlink" width="500" zoomAndPan="magnify" viewBox="0 0 375 374.999991" height="500" preserveAspectRatio="xMidYMid meet" version="1.0"><defs><g/><clipPath id="e7dbc16509"><path d="M 167 124 L 207 124 L 207 178 L 167 178 Z M 167 124 " clip-rule="nonzero"/></clipPath><clipPath id="f036d91984"><path d="M 194.753906 124.605469 L 206.828125 131.890625 L 179.539062 177.109375 L 167.464844 169.820312 Z M 194.753906 124.605469 " clip-rule="nonzero"/></clipPath><clipPath id="65fe3d0157"><path d="M 194.753906 124.605469 L 206.828125 131.890625 L 179.539062 177.109375 L 167.464844 169.820312 Z M 194.753906 124.605469 " clip-rule="nonzero"/></clipPath><clipPath id="daaa602f21"><path d="M 168 131 L 196 131 L 196 159 L 168 159 Z M 168 131 " clip-rule="nonzero"/></clipPath><clipPath id="fcdfa3934c"><path d="M 178.839844 131.804688 L 195.296875 141.738281 L 185.175781 158.5 L 168.722656 148.570312 Z M 178.839844 131.804688 " clip-rule="nonzero"/></clipPath><clipPath id="750797c126"><path d="M 178.839844 131.804688 L 195.296875 141.738281 L 185.175781 158.5 L 168.722656 148.570312 Z M 178.839844 131.804688 " clip-rule="nonzero"/></clipPath><clipPath id="75070ce142"><path d="M 187 133 L 214 133 L 214 159 L 187 159 Z M 187 133 " clip-rule="nonzero"/></clipPath><clipPath id="0324b16fbd"><path d="M 197.007812 133.59375 L 213.460938 143.527344 L 204.421875 158.5 L 187.96875 148.570312 Z M 197.007812 133.59375 " clip-rule="nonzero"/></clipPath><clipPath id="e8db53db06"><path d="M 197.007812 133.59375 L 213.460938 143.527344 L 204.421875 158.5 L 187.96875 148.570312 Z M 197.007812 133.59375 " clip-rule="nonzero"/></clipPath></defs><rect x="-37.5" width="450" fill="#ffffff" y="-37.499999" height="449.999989" fill-opacity="1"/><rect x="-37.5" width="450" fill="#ffffff" y="-37.499999" height="449.999989" fill-opacity="1"/><g fill="#0b0c52" fill-opacity="1"><g transform="translate(68.782415, 238.401168)"><g><path d="M 3.515625 -1.796875 L 8.59375 -1.796875 L 8.59375 0 L 1.546875 0 L 1.546875 -11.734375 L 3.515625 -11.734375 Z M 3.515625 -1.796875 "/></g></g></g><g fill="#0b0c52" fill-opacity="1"><g transform="translate(84.447806, 238.401168)"><g><path d="M 9.125 -2.65625 L 3.203125 -2.65625 L 2.078125 0 L 0.015625 0 L 5.203125 -11.734375 L 7.21875 -11.734375 L 12.359375 0 L 10.25 0 Z M 8.359375 -4.40625 L 6.15625 -9.625 L 3.9375 -4.40625 Z M 8.359375 -4.40625 "/></g></g></g><g fill="#0b0c52" fill-opacity="1"><g transform="translate(103.534566, 238.401168)"><g><path d="M 11.71875 0 L 9.78125 0 L 3.515625 -8.421875 L 3.515625 0 L 1.546875 0 L 1.546875 -11.734375 L 3.484375 -11.734375 L 9.78125 -3.296875 L 9.78125 -11.734375 L 11.71875 -11.734375 Z M 11.71875 0 "/></g></g></g><g fill="#0b0c52" fill-opacity="1"><g transform="translate(123.526977, 238.401168)"><g><path d="M 9.578125 -5.765625 L 11.296875 -5.765625 L 11.296875 -1.4375 C 10.691406 -0.976562 9.976562 -0.609375 9.15625 -0.328125 C 8.34375 -0.0546875 7.535156 0.078125 6.734375 0.078125 C 5.003906 0.078125 3.539062 -0.492188 2.34375 -1.640625 C 1.15625 -2.785156 0.5625 -4.191406 0.5625 -5.859375 C 0.5625 -7.535156 1.164062 -8.941406 2.375 -10.078125 C 3.582031 -11.210938 5.078125 -11.78125 6.859375 -11.78125 C 7.679688 -11.78125 8.492188 -11.628906 9.296875 -11.328125 C 10.097656 -11.035156 10.785156 -10.640625 11.359375 -10.140625 L 10.25 -8.6875 C 9.28125 -9.582031 8.148438 -10.03125 6.859375 -10.03125 C 5.660156 -10.03125 4.644531 -9.625 3.8125 -8.8125 C 2.988281 -8.007812 2.578125 -7.03125 2.578125 -5.875 C 2.578125 -4.695312 2.992188 -3.703125 3.828125 -2.890625 C 4.660156 -2.085938 5.675781 -1.6875 6.875 -1.6875 C 7.78125 -1.6875 8.679688 -1.957031 9.578125 -2.5 Z M 9.578125 -5.765625 "/></g></g></g><g fill="#0b0c52" fill-opacity="1"><g transform="translate(142.798219, 238.401168)"><g><path d="M 9.125 -2.65625 L 3.203125 -2.65625 L 2.078125 0 L 0.015625 0 L 5.203125 -11.734375 L 7.21875 -11.734375 L 12.359375 0 L 10.25 0 Z M 8.359375 -4.40625 L 6.15625 -9.625 L 3.9375 -4.40625 Z M 8.359375 -4.40625 "/></g></g></g><g fill="#0b0c52" fill-opacity="1"><g transform="translate(161.88498, 238.401168)"><g><path d="M 6.765625 0 L 4.734375 0 L 0.046875 -11.734375 L 2.171875 -11.734375 L 5.796875 -2.203125 L 9.453125 -11.734375 L 11.515625 -11.734375 Z M 6.765625 0 "/></g></g></g><g fill="#0b0c52" fill-opacity="1"><g transform="translate(180.166704, 238.401168)"><g><path d="M 3.515625 0 L 1.546875 0 L 1.546875 -11.734375 L 3.515625 -11.734375 Z M 3.515625 0 "/></g></g></g><g fill="#0b0c52" fill-opacity="1"><g transform="translate(191.941116, 238.401168)"><g/></g></g><g fill="#0b0c52" fill-opacity="1"><g transform="translate(202.977593, 238.401168)"><g><path d="M 9.921875 -9.953125 L 3.515625 -9.953125 L 3.515625 -6.796875 L 9.25 -6.796875 L 9.25 -5.015625 L 3.515625 -5.015625 L 3.515625 -1.78125 L 10.125 -1.78125 L 10.125 0 L 1.546875 0 L 1.546875 -11.734375 L 9.921875 -11.734375 Z M 9.921875 -9.953125 "/></g></g></g><g fill="#0b0c52" fill-opacity="1"><g transform="translate(220.689088, 238.401168)"><g><path d="M 1.546875 -11.734375 L 6.359375 -11.734375 C 8.109375 -11.734375 9.554688 -11.179688 10.703125 -10.078125 C 11.847656 -8.972656 12.421875 -7.566406 12.421875 -5.859375 C 12.421875 -4.160156 11.84375 -2.757812 10.6875 -1.65625 C 9.539062 -0.550781 8.078125 0 6.296875 0 L 1.546875 0 Z M 3.515625 -9.953125 L 3.515625 -1.78125 L 6.40625 -1.78125 C 7.550781 -1.78125 8.503906 -2.160156 9.265625 -2.921875 C 10.035156 -3.691406 10.421875 -4.664062 10.421875 -5.84375 C 10.421875 -7.03125 10.023438 -8.007812 9.234375 -8.78125 C 8.453125 -9.5625 7.484375 -9.953125 6.328125 -9.953125 Z M 3.515625 -9.953125 "/></g></g></g><g fill="#0b0c52" fill-opacity="1"><g transform="translate(240.396382, 238.401168)"><g><path d="M 9.5625 -9.953125 L 5.828125 -9.953125 L 5.828125 0 L 3.859375 0 L 3.859375 -9.953125 L 0.15625 -9.953125 L 0.15625 -11.734375 L 9.5625 -11.734375 Z M 9.5625 -9.953125 "/></g></g></g><g fill="#0b0c52" fill-opacity="1"><g transform="translate(256.816478, 238.401168)"><g><path d="M 9.921875 -9.953125 L 3.515625 -9.953125 L 3.515625 -6.796875 L 9.25 -6.796875 L 9.25 -5.015625 L 3.515625 -5.015625 L 3.515625 -1.78125 L 10.125 -1.78125 L 10.125 0 L 1.546875 0 L 1.546875 -11.734375 L 9.921875 -11.734375 Z M 9.921875 -9.953125 "/></g></g></g><g fill="#0b0c52" fill-opacity="1"><g transform="translate(274.527974, 238.401168)"><g><path d="M 6.734375 -11.78125 C 7.566406 -11.78125 8.375 -11.617188 9.15625 -11.296875 C 9.945312 -10.984375 10.628906 -10.539062 11.203125 -9.96875 L 10.046875 -8.53125 C 9.617188 -8.988281 9.113281 -9.351562 8.53125 -9.625 C 7.945312 -9.894531 7.359375 -10.03125 6.765625 -10.03125 C 5.597656 -10.03125 4.609375 -9.628906 3.796875 -8.828125 C 2.984375 -8.023438 2.578125 -7.050781 2.578125 -5.90625 C 2.578125 -4.738281 2.984375 -3.753906 3.796875 -2.953125 C 4.609375 -2.160156 5.597656 -1.765625 6.765625 -1.765625 C 7.984375 -1.765625 9.078125 -2.226562 10.046875 -3.15625 L 11.21875 -1.84375 C 10.613281 -1.25 9.90625 -0.78125 9.09375 -0.4375 C 8.289062 -0.09375 7.484375 0.078125 6.671875 0.078125 C 4.953125 0.078125 3.503906 -0.492188 2.328125 -1.640625 C 1.148438 -2.785156 0.5625 -4.203125 0.5625 -5.890625 C 0.5625 -7.546875 1.15625 -8.941406 2.34375 -10.078125 C 3.539062 -11.210938 5.003906 -11.78125 6.734375 -11.78125 Z M 6.734375 -11.78125 "/></g></g></g><g fill="#0b0c52" fill-opacity="1"><g transform="translate(292.927105, 238.401168)"><g><path d="M 11.71875 0 L 9.734375 0 L 9.734375 -4.859375 L 3.515625 -4.859375 L 3.515625 0 L 1.546875 0 L 1.546875 -11.734375 L 3.515625 -11.734375 L 3.515625 -6.640625 L 9.734375 -6.640625 L 9.734375 -11.734375 L 11.71875 -11.734375 Z M 11.71875 0 "/></g></g></g><g fill="#0b0c52" fill-opacity="1"><g transform="translate(146.162026, 141.104907)"><g><path d="M 14.296875 -6.828125 C 14.296875 -5.273438 14.46875 -4.132812 14.8125 -3.40625 C 15.164062 -2.6875 15.8125 -2.191406 16.75 -1.921875 C 17.6875 -1.660156 19.175781 -1.53125 21.21875 -1.53125 L 31.5 -1.53125 C 36.800781 -1.53125 39.9375 -4.929688 40.90625 -11.734375 C 40.90625 -11.890625 41.050781 -11.953125 41.34375 -11.921875 C 41.632812 -11.898438 41.78125 -11.8125 41.78125 -11.65625 C 41.300781 -7.414062 41.0625 -3.929688 41.0625 -1.203125 C 41.0625 -0.773438 40.976562 -0.46875 40.8125 -0.28125 C 40.65625 -0.09375 40.335938 0 39.859375 0 L 2.890625 0 C 2.785156 0 2.734375 -0.160156 2.734375 -0.484375 C 2.734375 -0.804688 2.785156 -0.96875 2.890625 -0.96875 C 4.984375 -0.96875 6.523438 -1.097656 7.515625 -1.359375 C 8.503906 -1.628906 9.171875 -2.148438 9.515625 -2.921875 C 9.867188 -3.703125 10.046875 -4.898438 10.046875 -6.515625 L 10.046875 -43.71875 C 10.046875 -45.320312 9.867188 -46.5 9.515625 -47.25 C 9.171875 -48 8.503906 -48.519531 7.515625 -48.8125 C 6.523438 -49.113281 4.984375 -49.265625 2.890625 -49.265625 C 2.785156 -49.265625 2.734375 -49.421875 2.734375 -49.734375 C 2.734375 -50.054688 2.785156 -50.21875 2.890625 -50.21875 L 6.828125 -50.140625 C 9.078125 -50.035156 10.847656 -49.984375 12.140625 -49.984375 C 13.578125 -49.984375 15.421875 -50.035156 17.671875 -50.140625 L 21.453125 -50.21875 C 21.554688 -50.21875 21.609375 -50.054688 21.609375 -49.734375 C 21.609375 -49.421875 21.554688 -49.265625 21.453125 -49.265625 C 19.367188 -49.265625 17.828125 -49.113281 16.828125 -48.8125 C 15.835938 -48.519531 15.164062 -47.984375 14.8125 -47.203125 C 14.46875 -46.429688 14.296875 -45.242188 14.296875 -43.640625 Z M 14.296875 -6.828125 "/></g></g></g><g fill="#0b0c52" fill-opacity="1"><g transform="translate(185.20617, 189.169223)"><g><path d="M 37.765625 -11.734375 C 37.765625 -11.890625 37.925781 -11.953125 38.25 -11.921875 C 38.570312 -11.898438 38.734375 -11.8125 38.734375 -11.65625 C 38.253906 -8.28125 38.015625 -4.796875 38.015625 -1.203125 C 38.015625 -0.773438 37.921875 -0.46875 37.734375 -0.28125 C 37.546875 -0.09375 37.207031 0 36.71875 0 L 3.53125 0 C 3.425781 0 3.375 -0.160156 3.375 -0.484375 C 3.375 -0.804688 3.425781 -0.96875 3.53125 -0.96875 C 5.625 -0.96875 7.164062 -1.097656 8.15625 -1.359375 C 9.144531 -1.628906 9.8125 -2.148438 10.15625 -2.921875 C 10.507812 -3.703125 10.6875 -4.898438 10.6875 -6.515625 L 10.6875 -43.71875 C 10.6875 -45.320312 10.507812 -46.5 10.15625 -47.25 C 9.8125 -48 9.144531 -48.519531 8.15625 -48.8125 C 7.164062 -49.113281 5.625 -49.265625 3.53125 -49.265625 C 3.425781 -49.265625 3.375 -49.421875 3.375 -49.734375 C 3.375 -50.054688 3.425781 -50.21875 3.53125 -50.21875 L 35.359375 -50.21875 C 35.835938 -50.21875 36.078125 -49.976562 36.078125 -49.5 L 36.234375 -39.78125 C 36.234375 -39.613281 36.085938 -39.53125 35.796875 -39.53125 C 35.503906 -39.53125 35.359375 -39.613281 35.359375 -39.78125 C 35.359375 -42.507812 34.632812 -44.675781 33.1875 -46.28125 C 31.738281 -47.894531 29.835938 -48.703125 27.484375 -48.703125 L 21.9375 -48.703125 C 19.90625 -48.703125 18.40625 -48.566406 17.4375 -48.296875 C 16.46875 -48.023438 15.8125 -47.515625 15.46875 -46.765625 C 15.125 -46.015625 14.953125 -44.835938 14.953125 -43.234375 L 14.953125 -26.921875 L 25.546875 -26.921875 C 28.015625 -26.921875 29.726562 -27.332031 30.6875 -28.15625 C 31.65625 -28.988281 32.140625 -30.425781 32.140625 -32.46875 C 32.140625 -32.570312 32.300781 -32.625 32.625 -32.625 C 32.945312 -32.625 33.109375 -32.570312 33.109375 -32.46875 L 33.03125 -26.109375 C 33.03125 -24.554688 33.054688 -23.40625 33.109375 -22.65625 L 33.1875 -18.890625 C 33.1875 -18.773438 33.023438 -18.71875 32.703125 -18.71875 C 32.378906 -18.71875 32.21875 -18.773438 32.21875 -18.890625 C 32.21875 -21.296875 31.707031 -22.976562 30.6875 -23.9375 C 29.675781 -24.90625 27.882812 -25.390625 25.3125 -25.390625 L 14.953125 -25.390625 L 14.953125 -6.828125 C 14.953125 -5.273438 15.125 -4.132812 15.46875 -3.40625 C 15.8125 -2.6875 16.453125 -2.191406 17.390625 -1.921875 C 18.328125 -1.660156 19.84375 -1.53125 21.9375 -1.53125 L 29.328125 -1.53125 C 31.472656 -1.53125 33.304688 -2.46875 34.828125 -4.34375 C 36.359375 -6.21875 37.335938 -8.679688 37.765625 -11.734375 Z M 37.765625 -11.734375 "/></g></g></g><g clip-path="url(#e7dbc16509)"><g clip-path="url(#f036d91984)"><g clip-path="url(#65fe3d0157)"><path fill="#ffffff" d="M 194.753906 124.605469 L 206.828125 131.890625 L 179.539062 177.109375 L 167.464844 169.820312 Z M 194.753906 124.605469 " fill-opacity="1" fill-rule="nonzero"/></g></g></g><g clip-path="url(#daaa602f21)"><g clip-path="url(#fcdfa3934c)"><g clip-path="url(#750797c126)"><path fill="#ffffff" d="M 178.839844 131.804688 L 195.296875 141.738281 L 185.175781 158.5 L 168.722656 148.570312 Z M 178.839844 131.804688 " fill-opacity="1" fill-rule="nonzero"/></g></g></g><g clip-path="url(#75070ce142)"><g clip-path="url(#0324b16fbd)"><g clip-path="url(#e8db53db06)"><path fill="#ffffff" d="M 197.007812 133.59375 L 213.460938 143.527344 L 204.421875 158.5 L 187.96875 148.570312 Z M 197.007812 133.59375 " fill-opacity="1" fill-rule="nonzero"/></g></g></g><path stroke-linecap="butt" transform="matrix(0.431053, -0.613753, 0.613753, 0.431053, 162.46394, 183.096742)" fill="none" stroke-linejoin="miter" d="M 0.000822678 1.000125 L 116.884887 0.999427 " stroke="#3d3b3a" stroke-width="2" stroke-opacity="1" stroke-miterlimit="4"/><g fill="#0b0c52" fill-opacity="1"><g transform="translate(92.309109, 262.564788)"><g><path d="M 3.390625 -5.015625 C 3.710938 -5.015625 3.960938 -4.957031 4.140625 -4.84375 C 4.316406 -4.738281 4.40625 -4.59375 4.40625 -4.40625 C 4.40625 -4.03125 4.125 -3.675781 3.5625 -3.34375 C 3.007812 -3.007812 2.335938 -2.765625 1.546875 -2.609375 C 1.523438 -2.429688 1.515625 -2.253906 1.515625 -2.078125 C 1.515625 -1.578125 1.617188 -1.171875 1.828125 -0.859375 C 2.035156 -0.554688 2.34375 -0.40625 2.75 -0.40625 C 2.925781 -0.40625 3.117188 -0.4375 3.328125 -0.5 C 3.535156 -0.5625 3.722656 -0.660156 3.890625 -0.796875 L 3.90625 -0.796875 C 3.925781 -0.796875 3.945312 -0.78125 3.96875 -0.75 C 3.988281 -0.726562 3.988281 -0.707031 3.96875 -0.6875 C 3.664062 -0.394531 3.347656 -0.179688 3.015625 -0.046875 C 2.679688 0.0859375 2.347656 0.15625 2.015625 0.15625 C 1.429688 0.15625 0.992188 -0.0195312 0.703125 -0.375 C 0.421875 -0.726562 0.28125 -1.171875 0.28125 -1.703125 C 0.28125 -1.890625 0.300781 -2.097656 0.34375 -2.328125 C 0.425781 -2.773438 0.609375 -3.203125 0.890625 -3.609375 C 1.179688 -4.023438 1.546875 -4.363281 1.984375 -4.625 C 2.421875 -4.882812 2.890625 -5.015625 3.390625 -5.015625 Z M 3.125 -4.078125 C 3.132812 -4.109375 3.140625 -4.15625 3.140625 -4.21875 C 3.140625 -4.363281 3.101562 -4.472656 3.03125 -4.546875 C 2.96875 -4.628906 2.867188 -4.671875 2.734375 -4.671875 C 2.472656 -4.671875 2.238281 -4.5 2.03125 -4.15625 C 1.820312 -3.8125 1.671875 -3.363281 1.578125 -2.8125 C 2.535156 -3.0625 3.050781 -3.484375 3.125 -4.078125 Z M 3.125 -4.078125 "/></g></g></g><g fill="#0b0c52" fill-opacity="1"><g transform="translate(100.572563, 262.564788)"><g><path d="M 4.5625 -1.125 C 4.539062 -1 4.53125 -0.894531 4.53125 -0.8125 C 4.53125 -0.625 4.59375 -0.53125 4.71875 -0.53125 C 4.800781 -0.53125 4.894531 -0.566406 5 -0.640625 C 5.101562 -0.710938 5.234375 -0.820312 5.390625 -0.96875 C 5.398438 -0.988281 5.414062 -1 5.4375 -1 C 5.457031 -1 5.472656 -0.984375 5.484375 -0.953125 C 5.503906 -0.921875 5.503906 -0.894531 5.484375 -0.875 C 5.203125 -0.53125 4.953125 -0.28125 4.734375 -0.125 C 4.515625 0.03125 4.285156 0.109375 4.046875 0.109375 C 3.648438 0.109375 3.453125 -0.128906 3.453125 -0.609375 C 3.453125 -0.773438 3.46875 -0.945312 3.5 -1.125 L 3.65625 -1.984375 C 3.3125 -1.304688 2.941406 -0.78125 2.546875 -0.40625 C 2.160156 -0.03125 1.765625 0.15625 1.359375 0.15625 C 1.035156 0.15625 0.765625 0.0546875 0.546875 -0.140625 C 0.335938 -0.347656 0.234375 -0.660156 0.234375 -1.078125 C 0.234375 -1.242188 0.253906 -1.410156 0.296875 -1.578125 C 0.398438 -2.171875 0.632812 -2.726562 1 -3.25 C 1.375 -3.78125 1.800781 -4.207031 2.28125 -4.53125 C 2.769531 -4.851562 3.242188 -5.015625 3.703125 -5.015625 C 3.890625 -5.015625 4.054688 -4.988281 4.203125 -4.9375 L 4.65625 -7.40625 C 4.675781 -7.570312 4.6875 -7.710938 4.6875 -7.828125 C 4.6875 -8.066406 4.609375 -8.1875 4.453125 -8.1875 C 4.347656 -8.1875 4.171875 -8.128906 3.921875 -8.015625 L 3.90625 -8.015625 C 3.863281 -8.015625 3.835938 -8.035156 3.828125 -8.078125 C 3.828125 -8.128906 3.84375 -8.15625 3.875 -8.15625 L 5.828125 -9.125 L 5.84375 -9.125 C 5.882812 -9.125 5.914062 -9.109375 5.9375 -9.078125 C 5.96875 -9.054688 5.976562 -9.035156 5.96875 -9.015625 Z M 1.984375 -0.71875 C 2.253906 -0.71875 2.515625 -0.84375 2.765625 -1.09375 C 3.023438 -1.34375 3.25 -1.648438 3.4375 -2.015625 C 3.625 -2.378906 3.757812 -2.726562 3.84375 -3.0625 L 3.90625 -3.390625 C 3.945312 -3.710938 3.875 -3.960938 3.6875 -4.140625 C 3.5 -4.316406 3.265625 -4.40625 2.984375 -4.40625 C 2.160156 -4.40625 1.628906 -3.691406 1.390625 -2.265625 C 1.359375 -2.066406 1.34375 -1.859375 1.34375 -1.640625 C 1.34375 -1.023438 1.554688 -0.71875 1.984375 -0.71875 Z M 1.984375 -0.71875 "/></g></g></g><g fill="#0b0c52" fill-opacity="1"><g transform="translate(110.005421, 262.564788)"><g><path d="M 5.609375 -1 C 5.617188 -1.007812 5.628906 -1.015625 5.640625 -1.015625 C 5.671875 -1.015625 5.691406 -1 5.703125 -0.96875 C 5.722656 -0.945312 5.722656 -0.921875 5.703125 -0.890625 C 5.398438 -0.535156 5.128906 -0.28125 4.890625 -0.125 C 4.660156 0.03125 4.421875 0.109375 4.171875 0.109375 C 3.773438 0.109375 3.578125 -0.109375 3.578125 -0.546875 C 3.578125 -0.671875 3.59375 -0.8125 3.625 -0.96875 L 3.828125 -2.109375 C 3.535156 -1.378906 3.195312 -0.816406 2.8125 -0.421875 C 2.425781 -0.0351562 2.019531 0.15625 1.59375 0.15625 C 1.019531 0.15625 0.734375 -0.1875 0.734375 -0.875 C 0.734375 -1.082031 0.753906 -1.289062 0.796875 -1.5 L 1.234375 -3.734375 C 1.253906 -3.859375 1.265625 -3.957031 1.265625 -4.03125 C 1.265625 -4.226562 1.195312 -4.328125 1.0625 -4.328125 C 0.976562 -4.328125 0.890625 -4.289062 0.796875 -4.21875 C 0.703125 -4.144531 0.578125 -4.035156 0.421875 -3.890625 C 0.398438 -3.867188 0.378906 -3.859375 0.359375 -3.859375 C 0.335938 -3.859375 0.316406 -3.875 0.296875 -3.90625 C 0.285156 -3.9375 0.289062 -3.960938 0.3125 -3.984375 C 0.59375 -4.316406 0.84375 -4.5625 1.0625 -4.71875 C 1.28125 -4.882812 1.503906 -4.96875 1.734375 -4.96875 C 2.148438 -4.96875 2.359375 -4.726562 2.359375 -4.25 C 2.359375 -4.132812 2.335938 -3.960938 2.296875 -3.734375 L 1.90625 -1.734375 C 1.863281 -1.546875 1.84375 -1.359375 1.84375 -1.171875 C 1.84375 -0.753906 1.972656 -0.546875 2.234375 -0.546875 C 2.472656 -0.546875 2.71875 -0.695312 2.96875 -1 C 3.21875 -1.3125 3.453125 -1.757812 3.671875 -2.34375 C 3.898438 -2.9375 4.085938 -3.644531 4.234375 -4.46875 L 4.28125 -4.703125 C 4.320312 -4.867188 4.554688 -4.953125 4.984375 -4.953125 C 5.117188 -4.953125 5.21875 -4.941406 5.28125 -4.921875 C 5.351562 -4.898438 5.390625 -4.878906 5.390625 -4.859375 L 5.34375 -4.59375 C 5.257812 -4.195312 5.210938 -3.972656 5.203125 -3.921875 L 4.6875 -1.125 C 4.675781 -1.039062 4.671875 -0.945312 4.671875 -0.84375 C 4.671875 -0.613281 4.738281 -0.5 4.875 -0.5 C 5.050781 -0.5 5.296875 -0.664062 5.609375 -1 Z M 5.609375 -1 "/></g></g></g><g fill="#0b0c52" fill-opacity="1"><g transform="translate(119.765202, 262.564788)"><g><path d="M 2.015625 0.15625 C 1.421875 0.15625 0.984375 -0.03125 0.703125 -0.40625 C 0.429688 -0.789062 0.296875 -1.269531 0.296875 -1.84375 C 0.296875 -2.050781 0.316406 -2.285156 0.359375 -2.546875 C 0.441406 -3.023438 0.632812 -3.453125 0.9375 -3.828125 C 1.238281 -4.210938 1.585938 -4.503906 1.984375 -4.703125 C 2.390625 -4.910156 2.789062 -5.015625 3.1875 -5.015625 C 3.488281 -5.015625 3.757812 -4.945312 4 -4.8125 C 4.238281 -4.675781 4.359375 -4.484375 4.359375 -4.234375 C 4.359375 -4.046875 4.300781 -3.894531 4.1875 -3.78125 C 4.082031 -3.664062 3.925781 -3.609375 3.71875 -3.609375 C 3.519531 -3.609375 3.375 -3.660156 3.28125 -3.765625 C 3.1875 -3.867188 3.125 -4.003906 3.09375 -4.171875 C 3.050781 -4.335938 3 -4.460938 2.9375 -4.546875 C 2.875 -4.628906 2.769531 -4.671875 2.625 -4.671875 C 2.375 -4.671875 2.148438 -4.515625 1.953125 -4.203125 C 1.765625 -3.898438 1.628906 -3.492188 1.546875 -2.984375 C 1.492188 -2.703125 1.46875 -2.4375 1.46875 -2.1875 C 1.46875 -1.65625 1.578125 -1.234375 1.796875 -0.921875 C 2.015625 -0.609375 2.34375 -0.453125 2.78125 -0.453125 C 2.945312 -0.453125 3.140625 -0.488281 3.359375 -0.5625 C 3.578125 -0.644531 3.753906 -0.738281 3.890625 -0.84375 L 3.90625 -0.84375 C 3.925781 -0.84375 3.945312 -0.828125 3.96875 -0.796875 C 4 -0.773438 4.003906 -0.753906 3.984375 -0.734375 C 3.679688 -0.441406 3.359375 -0.21875 3.015625 -0.0625 C 2.671875 0.0820312 2.335938 0.15625 2.015625 0.15625 Z M 2.015625 0.15625 "/></g></g></g><g fill="#0b0c52" fill-opacity="1"><g transform="translate(127.90291, 262.564788)"><g><path d="M 5.21875 -0.96875 C 5.226562 -0.976562 5.238281 -0.984375 5.25 -0.984375 C 5.28125 -0.984375 5.300781 -0.96875 5.3125 -0.9375 C 5.332031 -0.90625 5.335938 -0.882812 5.328125 -0.875 C 4.785156 -0.21875 4.3125 0.109375 3.90625 0.109375 C 3.6875 0.109375 3.523438 0.0507812 3.421875 -0.0625 C 3.328125 -0.1875 3.28125 -0.378906 3.28125 -0.640625 C 3.28125 -0.785156 3.296875 -0.945312 3.328125 -1.125 L 3.46875 -1.96875 C 3.15625 -1.300781 2.773438 -0.78125 2.328125 -0.40625 C 1.890625 -0.03125 1.460938 0.15625 1.046875 0.15625 C 0.785156 0.15625 0.578125 0.078125 0.421875 -0.078125 C 0.273438 -0.234375 0.203125 -0.472656 0.203125 -0.796875 C 0.203125 -1.359375 0.390625 -1.972656 0.765625 -2.640625 C 1.140625 -3.304688 1.597656 -3.867188 2.140625 -4.328125 C 2.691406 -4.785156 3.210938 -5.015625 3.703125 -5.015625 C 3.847656 -5.015625 4.003906 -4.988281 4.171875 -4.9375 C 4.335938 -4.882812 4.476562 -4.800781 4.59375 -4.6875 C 4.75 -4.8125 4.878906 -4.957031 4.984375 -5.125 C 4.992188 -5.132812 5.007812 -5.140625 5.03125 -5.140625 C 5.050781 -5.140625 5.070312 -5.128906 5.09375 -5.109375 C 5.125 -5.097656 5.132812 -5.085938 5.125 -5.078125 L 4.40625 -1.125 C 4.375 -1.007812 4.359375 -0.910156 4.359375 -0.828125 C 4.359375 -0.628906 4.421875 -0.53125 4.546875 -0.53125 C 4.703125 -0.53125 4.925781 -0.675781 5.21875 -0.96875 Z M 1.84375 -0.75 C 2.09375 -0.75 2.347656 -0.878906 2.609375 -1.140625 C 2.878906 -1.410156 3.113281 -1.734375 3.3125 -2.109375 C 3.507812 -2.492188 3.640625 -2.851562 3.703125 -3.1875 C 3.722656 -3.320312 3.734375 -3.445312 3.734375 -3.5625 C 3.734375 -3.832031 3.671875 -4.039062 3.546875 -4.1875 C 3.429688 -4.332031 3.265625 -4.40625 3.046875 -4.40625 C 2.660156 -4.40625 2.316406 -4.195312 2.015625 -3.78125 C 1.722656 -3.363281 1.515625 -2.820312 1.390625 -2.15625 C 1.347656 -1.894531 1.328125 -1.695312 1.328125 -1.5625 C 1.328125 -1.28125 1.375 -1.070312 1.46875 -0.9375 C 1.5625 -0.8125 1.6875 -0.75 1.84375 -0.75 Z M 1.84375 -0.75 "/></g></g></g><g fill="#0b0c52" fill-opacity="1"><g transform="translate(137.260317, 262.564788)"><g><path d="M 3.828125 -4.859375 C 3.878906 -4.859375 3.90625 -4.816406 3.90625 -4.734375 C 3.90625 -4.671875 3.859375 -4.570312 3.765625 -4.4375 C 3.671875 -4.300781 3.582031 -4.234375 3.5 -4.234375 C 3.46875 -4.234375 3.328125 -4.253906 3.078125 -4.296875 C 2.835938 -4.335938 2.5625 -4.367188 2.25 -4.390625 L 1.71875 -1.390625 C 1.707031 -1.253906 1.703125 -1.164062 1.703125 -1.125 C 1.703125 -0.914062 1.753906 -0.765625 1.859375 -0.671875 C 1.960938 -0.585938 2.125 -0.546875 2.34375 -0.546875 C 2.65625 -0.546875 3.003906 -0.695312 3.390625 -1 L 3.40625 -1 C 3.4375 -1 3.460938 -0.988281 3.484375 -0.96875 C 3.515625 -0.945312 3.519531 -0.921875 3.5 -0.890625 C 3.113281 -0.523438 2.769531 -0.257812 2.46875 -0.09375 C 2.175781 0.0703125 1.878906 0.15625 1.578125 0.15625 C 0.898438 0.15625 0.5625 -0.148438 0.5625 -0.765625 C 0.5625 -0.890625 0.578125 -1.03125 0.609375 -1.1875 L 1.09375 -3.84375 C 1.113281 -3.988281 1.125 -4.109375 1.125 -4.203125 C 1.125 -4.328125 1.09375 -4.410156 1.03125 -4.453125 C 0.96875 -4.492188 0.847656 -4.515625 0.671875 -4.515625 C 0.640625 -4.515625 0.625 -4.546875 0.625 -4.609375 C 0.625 -4.679688 0.640625 -4.71875 0.671875 -4.71875 C 1.335938 -4.71875 1.867188 -5.085938 2.265625 -5.828125 C 2.285156 -5.847656 2.316406 -5.859375 2.359375 -5.859375 C 2.398438 -5.859375 2.4375 -5.847656 2.46875 -5.828125 C 2.5 -5.816406 2.507812 -5.800781 2.5 -5.78125 L 2.3125 -4.75 C 2.550781 -4.757812 2.753906 -4.769531 2.921875 -4.78125 C 3.085938 -4.800781 3.226562 -4.8125 3.34375 -4.8125 C 3.5625 -4.84375 3.722656 -4.859375 3.828125 -4.859375 Z M 3.828125 -4.859375 "/></g></g></g><g fill="#0b0c52" fill-opacity="1"><g transform="translate(144.819616, 262.564788)"><g><path d="M 2.171875 -6.28125 C 1.953125 -6.28125 1.773438 -6.34375 1.640625 -6.46875 C 1.515625 -6.601562 1.453125 -6.78125 1.453125 -7 C 1.453125 -7.207031 1.515625 -7.375 1.640625 -7.5 C 1.773438 -7.625 1.953125 -7.6875 2.171875 -7.6875 C 2.390625 -7.6875 2.5625 -7.625 2.6875 -7.5 C 2.8125 -7.375 2.875 -7.207031 2.875 -7 C 2.875 -6.769531 2.8125 -6.59375 2.6875 -6.46875 C 2.5625 -6.34375 2.390625 -6.28125 2.171875 -6.28125 Z M 1.328125 0.109375 C 0.929688 0.109375 0.734375 -0.125 0.734375 -0.59375 C 0.734375 -0.71875 0.753906 -0.894531 0.796875 -1.125 L 1.3125 -3.734375 C 1.332031 -3.847656 1.34375 -3.945312 1.34375 -4.03125 C 1.34375 -4.132812 1.320312 -4.210938 1.28125 -4.265625 C 1.238281 -4.328125 1.1875 -4.359375 1.125 -4.359375 C 0.945312 -4.359375 0.707031 -4.1875 0.40625 -3.84375 C 0.394531 -3.84375 0.378906 -3.84375 0.359375 -3.84375 C 0.328125 -3.84375 0.300781 -3.851562 0.28125 -3.875 C 0.269531 -3.90625 0.273438 -3.9375 0.296875 -3.96875 C 0.585938 -4.3125 0.851562 -4.5625 1.09375 -4.71875 C 1.34375 -4.882812 1.585938 -4.96875 1.828125 -4.96875 C 2.222656 -4.96875 2.421875 -4.75 2.421875 -4.3125 C 2.421875 -4.164062 2.40625 -4.023438 2.375 -3.890625 L 1.84375 -1.125 C 1.832031 -1.039062 1.828125 -0.941406 1.828125 -0.828125 C 1.828125 -0.628906 1.890625 -0.53125 2.015625 -0.53125 C 2.097656 -0.53125 2.191406 -0.566406 2.296875 -0.640625 C 2.398438 -0.710938 2.523438 -0.820312 2.671875 -0.96875 C 2.691406 -0.988281 2.710938 -1 2.734375 -1 C 2.753906 -1 2.769531 -0.984375 2.78125 -0.953125 C 2.800781 -0.921875 2.800781 -0.894531 2.78125 -0.875 C 2.5 -0.53125 2.242188 -0.28125 2.015625 -0.125 C 1.796875 0.03125 1.566406 0.109375 1.328125 0.109375 Z M 1.328125 0.109375 "/></g></g></g><g fill="#0b0c52" fill-opacity="1"><g transform="translate(151.699901, 262.564788)"><g><path d="M 1.984375 0.171875 C 1.429688 0.171875 1.007812 -0.00390625 0.71875 -0.359375 C 0.4375 -0.710938 0.296875 -1.175781 0.296875 -1.75 C 0.296875 -2 0.316406 -2.222656 0.359375 -2.421875 C 0.441406 -2.929688 0.617188 -3.378906 0.890625 -3.765625 C 1.171875 -4.160156 1.503906 -4.46875 1.890625 -4.6875 C 2.273438 -4.90625 2.6875 -5.015625 3.125 -5.015625 C 3.6875 -5.015625 4.117188 -4.84375 4.421875 -4.5 C 4.722656 -4.164062 4.875 -3.710938 4.875 -3.140625 C 4.875 -2.921875 4.847656 -2.679688 4.796875 -2.421875 C 4.679688 -1.867188 4.476562 -1.394531 4.1875 -1 C 3.90625 -0.613281 3.566406 -0.320312 3.171875 -0.125 C 2.785156 0.0703125 2.390625 0.171875 1.984375 0.171875 Z M 2.421875 -0.140625 C 2.679688 -0.140625 2.910156 -0.289062 3.109375 -0.59375 C 3.304688 -0.90625 3.453125 -1.332031 3.546875 -1.875 C 3.609375 -2.195312 3.640625 -2.53125 3.640625 -2.875 C 3.640625 -3.414062 3.554688 -3.859375 3.390625 -4.203125 C 3.222656 -4.546875 3 -4.71875 2.71875 -4.71875 C 2.46875 -4.71875 2.242188 -4.570312 2.046875 -4.28125 C 1.847656 -3.988281 1.695312 -3.550781 1.59375 -2.96875 C 1.539062 -2.644531 1.515625 -2.3125 1.515625 -1.96875 C 1.515625 -1.425781 1.59375 -0.984375 1.75 -0.640625 C 1.90625 -0.304688 2.128906 -0.140625 2.421875 -0.140625 Z M 2.421875 -0.140625 "/></g></g></g><g fill="#0b0c52" fill-opacity="1"><g transform="translate(160.60464, 262.564788)"><g><path d="M 5.609375 -0.96875 C 5.628906 -0.988281 5.640625 -1 5.640625 -1 C 5.671875 -1 5.691406 -0.984375 5.703125 -0.953125 C 5.722656 -0.921875 5.722656 -0.894531 5.703125 -0.875 C 5.421875 -0.53125 5.164062 -0.28125 4.9375 -0.125 C 4.71875 0.03125 4.492188 0.109375 4.265625 0.109375 C 3.859375 0.109375 3.65625 -0.125 3.65625 -0.59375 C 3.65625 -0.71875 3.675781 -0.894531 3.71875 -1.125 L 4.09375 -3.125 C 4.132812 -3.351562 4.15625 -3.539062 4.15625 -3.6875 C 4.15625 -4.09375 4.019531 -4.296875 3.75 -4.296875 C 3.507812 -4.296875 3.265625 -4.144531 3.015625 -3.84375 C 2.765625 -3.539062 2.523438 -3.09375 2.296875 -2.5 C 2.078125 -1.914062 1.894531 -1.210938 1.75 -0.390625 L 1.703125 -0.15625 C 1.660156 0.0078125 1.425781 0.09375 1 0.09375 C 0.726562 0.09375 0.59375 0.0625 0.59375 0 L 0.640625 -0.265625 C 0.722656 -0.660156 0.769531 -0.882812 0.78125 -0.9375 L 1.296875 -3.734375 C 1.316406 -3.804688 1.328125 -3.898438 1.328125 -4.015625 C 1.328125 -4.242188 1.253906 -4.359375 1.109375 -4.359375 C 0.929688 -4.359375 0.6875 -4.1875 0.375 -3.84375 C 0.363281 -3.84375 0.351562 -3.84375 0.34375 -3.84375 C 0.3125 -3.84375 0.285156 -3.851562 0.265625 -3.875 C 0.253906 -3.90625 0.257812 -3.9375 0.28125 -3.96875 C 0.582031 -4.3125 0.851562 -4.5625 1.09375 -4.71875 C 1.332031 -4.882812 1.570312 -4.96875 1.8125 -4.96875 C 2.207031 -4.96875 2.40625 -4.742188 2.40625 -4.296875 C 2.40625 -4.171875 2.390625 -4.035156 2.359375 -3.890625 L 2.15625 -2.734375 C 2.457031 -3.472656 2.796875 -4.035156 3.171875 -4.421875 C 3.554688 -4.816406 3.960938 -5.015625 4.390625 -5.015625 C 4.960938 -5.015625 5.25 -4.664062 5.25 -3.96875 C 5.25 -3.8125 5.226562 -3.609375 5.1875 -3.359375 L 4.78125 -1.125 C 4.75 -1 4.734375 -0.894531 4.734375 -0.8125 C 4.734375 -0.625 4.800781 -0.53125 4.9375 -0.53125 C 5.019531 -0.53125 5.113281 -0.566406 5.21875 -0.640625 C 5.332031 -0.710938 5.460938 -0.820312 5.609375 -0.96875 Z M 5.609375 -0.96875 "/></g></g></g><g fill="#0b0c52" fill-opacity="1"><g transform="translate(170.351847, 262.564788)"><g><path d="M 5.21875 -0.96875 C 5.226562 -0.976562 5.238281 -0.984375 5.25 -0.984375 C 5.28125 -0.984375 5.300781 -0.96875 5.3125 -0.9375 C 5.332031 -0.90625 5.335938 -0.882812 5.328125 -0.875 C 4.785156 -0.21875 4.3125 0.109375 3.90625 0.109375 C 3.6875 0.109375 3.523438 0.0507812 3.421875 -0.0625 C 3.328125 -0.1875 3.28125 -0.378906 3.28125 -0.640625 C 3.28125 -0.785156 3.296875 -0.945312 3.328125 -1.125 L 3.46875 -1.96875 C 3.15625 -1.300781 2.773438 -0.78125 2.328125 -0.40625 C 1.890625 -0.03125 1.460938 0.15625 1.046875 0.15625 C 0.785156 0.15625 0.578125 0.078125 0.421875 -0.078125 C 0.273438 -0.234375 0.203125 -0.472656 0.203125 -0.796875 C 0.203125 -1.359375 0.390625 -1.972656 0.765625 -2.640625 C 1.140625 -3.304688 1.597656 -3.867188 2.140625 -4.328125 C 2.691406 -4.785156 3.210938 -5.015625 3.703125 -5.015625 C 3.847656 -5.015625 4.003906 -4.988281 4.171875 -4.9375 C 4.335938 -4.882812 4.476562 -4.800781 4.59375 -4.6875 C 4.75 -4.8125 4.878906 -4.957031 4.984375 -5.125 C 4.992188 -5.132812 5.007812 -5.140625 5.03125 -5.140625 C 5.050781 -5.140625 5.070312 -5.128906 5.09375 -5.109375 C 5.125 -5.097656 5.132812 -5.085938 5.125 -5.078125 L 4.40625 -1.125 C 4.375 -1.007812 4.359375 -0.910156 4.359375 -0.828125 C 4.359375 -0.628906 4.421875 -0.53125 4.546875 -0.53125 C 4.703125 -0.53125 4.925781 -0.675781 5.21875 -0.96875 Z M 1.84375 -0.75 C 2.09375 -0.75 2.347656 -0.878906 2.609375 -1.140625 C 2.878906 -1.410156 3.113281 -1.734375 3.3125 -2.109375 C 3.507812 -2.492188 3.640625 -2.851562 3.703125 -3.1875 C 3.722656 -3.320312 3.734375 -3.445312 3.734375 -3.5625 C 3.734375 -3.832031 3.671875 -4.039062 3.546875 -4.1875 C 3.429688 -4.332031 3.265625 -4.40625 3.046875 -4.40625 C 2.660156 -4.40625 2.316406 -4.195312 2.015625 -3.78125 C 1.722656 -3.363281 1.515625 -2.820312 1.390625 -2.15625 C 1.347656 -1.894531 1.328125 -1.695312 1.328125 -1.5625 C 1.328125 -1.28125 1.375 -1.070312 1.46875 -0.9375 C 1.5625 -0.8125 1.6875 -0.75 1.84375 -0.75 Z M 1.84375 -0.75 "/></g></g></g><g fill="#0b0c52" fill-opacity="1"><g transform="translate(179.709257, 262.564788)"><g><path d="M 1.1875 0.109375 C 0.78125 0.109375 0.578125 -0.128906 0.578125 -0.609375 C 0.578125 -0.773438 0.59375 -0.945312 0.625 -1.125 L 1.78125 -7.40625 C 1.8125 -7.570312 1.828125 -7.710938 1.828125 -7.828125 C 1.828125 -8.066406 1.742188 -8.1875 1.578125 -8.1875 C 1.484375 -8.1875 1.3125 -8.128906 1.0625 -8.015625 L 1.046875 -8.015625 C 1.003906 -8.015625 0.976562 -8.035156 0.96875 -8.078125 C 0.957031 -8.128906 0.96875 -8.15625 1 -8.15625 L 2.953125 -9.125 L 2.984375 -9.125 C 3.015625 -9.125 3.046875 -9.109375 3.078125 -9.078125 C 3.109375 -9.054688 3.117188 -9.035156 3.109375 -9.015625 L 1.703125 -1.125 C 1.671875 -1 1.65625 -0.894531 1.65625 -0.8125 C 1.65625 -0.625 1.71875 -0.53125 1.84375 -0.53125 C 1.925781 -0.53125 2.019531 -0.566406 2.125 -0.640625 C 2.238281 -0.710938 2.367188 -0.820312 2.515625 -0.96875 C 2.535156 -0.988281 2.550781 -1 2.5625 -1 C 2.59375 -1 2.613281 -0.984375 2.625 -0.953125 C 2.644531 -0.921875 2.640625 -0.894531 2.609375 -0.875 C 2.328125 -0.53125 2.078125 -0.28125 1.859375 -0.125 C 1.640625 0.03125 1.414062 0.109375 1.1875 0.109375 Z M 1.1875 0.109375 "/></g></g></g><g fill="#0b0c52" fill-opacity="1"><g transform="translate(186.589547, 262.564788)"><g/></g></g><g fill="#0b0c52" fill-opacity="1"><g transform="translate(193.306382, 262.564788)"><g><path d="M 2.015625 0.15625 C 1.421875 0.15625 0.984375 -0.03125 0.703125 -0.40625 C 0.429688 -0.789062 0.296875 -1.269531 0.296875 -1.84375 C 0.296875 -2.050781 0.316406 -2.285156 0.359375 -2.546875 C 0.441406 -3.023438 0.632812 -3.453125 0.9375 -3.828125 C 1.238281 -4.210938 1.585938 -4.503906 1.984375 -4.703125 C 2.390625 -4.910156 2.789062 -5.015625 3.1875 -5.015625 C 3.488281 -5.015625 3.757812 -4.945312 4 -4.8125 C 4.238281 -4.675781 4.359375 -4.484375 4.359375 -4.234375 C 4.359375 -4.046875 4.300781 -3.894531 4.1875 -3.78125 C 4.082031 -3.664062 3.925781 -3.609375 3.71875 -3.609375 C 3.519531 -3.609375 3.375 -3.660156 3.28125 -3.765625 C 3.1875 -3.867188 3.125 -4.003906 3.09375 -4.171875 C 3.050781 -4.335938 3 -4.460938 2.9375 -4.546875 C 2.875 -4.628906 2.769531 -4.671875 2.625 -4.671875 C 2.375 -4.671875 2.148438 -4.515625 1.953125 -4.203125 C 1.765625 -3.898438 1.628906 -3.492188 1.546875 -2.984375 C 1.492188 -2.703125 1.46875 -2.4375 1.46875 -2.1875 C 1.46875 -1.65625 1.578125 -1.234375 1.796875 -0.921875 C 2.015625 -0.609375 2.34375 -0.453125 2.78125 -0.453125 C 2.945312 -0.453125 3.140625 -0.488281 3.359375 -0.5625 C 3.578125 -0.644531 3.753906 -0.738281 3.890625 -0.84375 L 3.90625 -0.84375 C 3.925781 -0.84375 3.945312 -0.828125 3.96875 -0.796875 C 4 -0.773438 4.003906 -0.753906 3.984375 -0.734375 C 3.679688 -0.441406 3.359375 -0.21875 3.015625 -0.0625 C 2.671875 0.0820312 2.335938 0.15625 2.015625 0.15625 Z M 2.015625 0.15625 "/></g></g></g><g fill="#0b0c52" fill-opacity="1"><g transform="translate(201.444092, 262.564788)"><g><path d="M 1.984375 0.171875 C 1.429688 0.171875 1.007812 -0.00390625 0.71875 -0.359375 C 0.4375 -0.710938 0.296875 -1.175781 0.296875 -1.75 C 0.296875 -2 0.316406 -2.222656 0.359375 -2.421875 C 0.441406 -2.929688 0.617188 -3.378906 0.890625 -3.765625 C 1.171875 -4.160156 1.503906 -4.46875 1.890625 -4.6875 C 2.273438 -4.90625 2.6875 -5.015625 3.125 -5.015625 C 3.6875 -5.015625 4.117188 -4.84375 4.421875 -4.5 C 4.722656 -4.164062 4.875 -3.710938 4.875 -3.140625 C 4.875 -2.921875 4.847656 -2.679688 4.796875 -2.421875 C 4.679688 -1.867188 4.476562 -1.394531 4.1875 -1 C 3.90625 -0.613281 3.566406 -0.320312 3.171875 -0.125 C 2.785156 0.0703125 2.390625 0.171875 1.984375 0.171875 Z M 2.421875 -0.140625 C 2.679688 -0.140625 2.910156 -0.289062 3.109375 -0.59375 C 3.304688 -0.90625 3.453125 -1.332031 3.546875 -1.875 C 3.609375 -2.195312 3.640625 -2.53125 3.640625 -2.875 C 3.640625 -3.414062 3.554688 -3.859375 3.390625 -4.203125 C 3.222656 -4.546875 3 -4.71875 2.71875 -4.71875 C 2.46875 -4.71875 2.242188 -4.570312 2.046875 -4.28125 C 1.847656 -3.988281 1.695312 -3.550781 1.59375 -2.96875 C 1.539062 -2.644531 1.515625 -2.3125 1.515625 -1.96875 C 1.515625 -1.425781 1.59375 -0.984375 1.75 -0.640625 C 1.90625 -0.304688 2.128906 -0.140625 2.421875 -0.140625 Z M 2.421875 -0.140625 "/></g></g></g><g fill="#0b0c52" fill-opacity="1"><g transform="translate(210.348831, 262.564788)"><g><path d="M 5.609375 -0.96875 C 5.628906 -0.988281 5.640625 -1 5.640625 -1 C 5.671875 -1 5.691406 -0.984375 5.703125 -0.953125 C 5.722656 -0.921875 5.722656 -0.894531 5.703125 -0.875 C 5.421875 -0.53125 5.164062 -0.28125 4.9375 -0.125 C 4.71875 0.03125 4.492188 0.109375 4.265625 0.109375 C 3.859375 0.109375 3.65625 -0.125 3.65625 -0.59375 C 3.65625 -0.71875 3.675781 -0.894531 3.71875 -1.125 L 4.09375 -3.125 C 4.132812 -3.351562 4.15625 -3.539062 4.15625 -3.6875 C 4.15625 -4.09375 4.019531 -4.296875 3.75 -4.296875 C 3.507812 -4.296875 3.265625 -4.144531 3.015625 -3.84375 C 2.765625 -3.539062 2.523438 -3.09375 2.296875 -2.5 C 2.078125 -1.914062 1.894531 -1.210938 1.75 -0.390625 L 1.703125 -0.15625 C 1.660156 0.0078125 1.425781 0.09375 1 0.09375 C 0.726562 0.09375 0.59375 0.0625 0.59375 0 L 0.640625 -0.265625 C 0.722656 -0.660156 0.769531 -0.882812 0.78125 -0.9375 L 1.296875 -3.734375 C 1.316406 -3.804688 1.328125 -3.898438 1.328125 -4.015625 C 1.328125 -4.242188 1.253906 -4.359375 1.109375 -4.359375 C 0.929688 -4.359375 0.6875 -4.1875 0.375 -3.84375 C 0.363281 -3.84375 0.351562 -3.84375 0.34375 -3.84375 C 0.3125 -3.84375 0.285156 -3.851562 0.265625 -3.875 C 0.253906 -3.90625 0.257812 -3.9375 0.28125 -3.96875 C 0.582031 -4.3125 0.851562 -4.5625 1.09375 -4.71875 C 1.332031 -4.882812 1.570312 -4.96875 1.8125 -4.96875 C 2.207031 -4.96875 2.40625 -4.742188 2.40625 -4.296875 C 2.40625 -4.171875 2.390625 -4.035156 2.359375 -3.890625 L 2.15625 -2.734375 C 2.457031 -3.472656 2.796875 -4.035156 3.171875 -4.421875 C 3.554688 -4.816406 3.960938 -5.015625 4.390625 -5.015625 C 4.960938 -5.015625 5.25 -4.664062 5.25 -3.96875 C 5.25 -3.8125 5.226562 -3.609375 5.1875 -3.359375 L 4.78125 -1.125 C 4.75 -1 4.734375 -0.894531 4.734375 -0.8125 C 4.734375 -0.625 4.800781 -0.53125 4.9375 -0.53125 C 5.019531 -0.53125 5.113281 -0.566406 5.21875 -0.640625 C 5.332031 -0.710938 5.460938 -0.820312 5.609375 -0.96875 Z M 5.609375 -0.96875 "/></g></g></g><g fill="#0b0c52" fill-opacity="1"><g transform="translate(220.096038, 262.564788)"><g><path d="M 1.359375 0.140625 C 0.992188 0.140625 0.6875 0.0625 0.4375 -0.09375 C 0.1875 -0.257812 0.0625 -0.453125 0.0625 -0.671875 C 0.0625 -0.867188 0.113281 -1.019531 0.21875 -1.125 C 0.332031 -1.226562 0.46875 -1.28125 0.625 -1.28125 C 0.769531 -1.28125 0.882812 -1.242188 0.96875 -1.171875 C 1.050781 -1.097656 1.144531 -0.976562 1.25 -0.8125 C 1.363281 -0.632812 1.46875 -0.503906 1.5625 -0.421875 C 1.65625 -0.335938 1.789062 -0.296875 1.96875 -0.296875 C 2.101562 -0.296875 2.207031 -0.332031 2.28125 -0.40625 C 2.351562 -0.488281 2.398438 -0.617188 2.421875 -0.796875 C 2.429688 -0.828125 2.4375 -0.875 2.4375 -0.9375 C 2.4375 -1.1875 2.363281 -1.398438 2.21875 -1.578125 C 2.082031 -1.753906 1.863281 -1.957031 1.5625 -2.1875 C 1.257812 -2.4375 1.035156 -2.648438 0.890625 -2.828125 C 0.742188 -3.015625 0.671875 -3.234375 0.671875 -3.484375 C 0.671875 -3.535156 0.675781 -3.609375 0.6875 -3.703125 C 0.726562 -3.921875 0.832031 -4.125 1 -4.3125 C 1.175781 -4.507812 1.398438 -4.671875 1.671875 -4.796875 C 1.953125 -4.921875 2.25 -4.984375 2.5625 -4.984375 C 2.96875 -4.984375 3.28125 -4.914062 3.5 -4.78125 C 3.726562 -4.644531 3.828125 -4.457031 3.796875 -4.21875 C 3.773438 -4.0625 3.707031 -3.9375 3.59375 -3.84375 C 3.476562 -3.75 3.359375 -3.703125 3.234375 -3.703125 C 3.054688 -3.703125 2.925781 -3.742188 2.84375 -3.828125 C 2.757812 -3.910156 2.679688 -4.023438 2.609375 -4.171875 C 2.535156 -4.328125 2.460938 -4.441406 2.390625 -4.515625 C 2.316406 -4.585938 2.195312 -4.625 2.03125 -4.625 C 1.894531 -4.625 1.785156 -4.582031 1.703125 -4.5 C 1.628906 -4.425781 1.585938 -4.335938 1.578125 -4.234375 C 1.566406 -4.203125 1.5625 -4.15625 1.5625 -4.09375 C 1.5625 -3.875 1.628906 -3.675781 1.765625 -3.5 C 1.910156 -3.332031 2.128906 -3.132812 2.421875 -2.90625 C 2.742188 -2.644531 2.976562 -2.421875 3.125 -2.234375 C 3.28125 -2.046875 3.359375 -1.828125 3.359375 -1.578125 C 3.359375 -1.535156 3.347656 -1.460938 3.328125 -1.359375 C 3.285156 -1.128906 3.175781 -0.898438 3 -0.671875 C 2.820312 -0.441406 2.585938 -0.25 2.296875 -0.09375 C 2.015625 0.0625 1.703125 0.140625 1.359375 0.140625 Z M 1.359375 0.140625 "/></g></g></g><g fill="#0b0c52" fill-opacity="1"><g transform="translate(227.843951, 262.564788)"><g><path d="M 5.609375 -1 C 5.617188 -1.007812 5.628906 -1.015625 5.640625 -1.015625 C 5.671875 -1.015625 5.691406 -1 5.703125 -0.96875 C 5.722656 -0.945312 5.722656 -0.921875 5.703125 -0.890625 C 5.398438 -0.535156 5.128906 -0.28125 4.890625 -0.125 C 4.660156 0.03125 4.421875 0.109375 4.171875 0.109375 C 3.773438 0.109375 3.578125 -0.109375 3.578125 -0.546875 C 3.578125 -0.671875 3.59375 -0.8125 3.625 -0.96875 L 3.828125 -2.109375 C 3.535156 -1.378906 3.195312 -0.816406 2.8125 -0.421875 C 2.425781 -0.0351562 2.019531 0.15625 1.59375 0.15625 C 1.019531 0.15625 0.734375 -0.1875 0.734375 -0.875 C 0.734375 -1.082031 0.753906 -1.289062 0.796875 -1.5 L 1.234375 -3.734375 C 1.253906 -3.859375 1.265625 -3.957031 1.265625 -4.03125 C 1.265625 -4.226562 1.195312 -4.328125 1.0625 -4.328125 C 0.976562 -4.328125 0.890625 -4.289062 0.796875 -4.21875 C 0.703125 -4.144531 0.578125 -4.035156 0.421875 -3.890625 C 0.398438 -3.867188 0.378906 -3.859375 0.359375 -3.859375 C 0.335938 -3.859375 0.316406 -3.875 0.296875 -3.90625 C 0.285156 -3.9375 0.289062 -3.960938 0.3125 -3.984375 C 0.59375 -4.316406 0.84375 -4.5625 1.0625 -4.71875 C 1.28125 -4.882812 1.503906 -4.96875 1.734375 -4.96875 C 2.148438 -4.96875 2.359375 -4.726562 2.359375 -4.25 C 2.359375 -4.132812 2.335938 -3.960938 2.296875 -3.734375 L 1.90625 -1.734375 C 1.863281 -1.546875 1.84375 -1.359375 1.84375 -1.171875 C 1.84375 -0.753906 1.972656 -0.546875 2.234375 -0.546875 C 2.472656 -0.546875 2.71875 -0.695312 2.96875 -1 C 3.21875 -1.3125 3.453125 -1.757812 3.671875 -2.34375 C 3.898438 -2.9375 4.085938 -3.644531 4.234375 -4.46875 L 4.28125 -4.703125 C 4.320312 -4.867188 4.554688 -4.953125 4.984375 -4.953125 C 5.117188 -4.953125 5.21875 -4.941406 5.28125 -4.921875 C 5.351562 -4.898438 5.390625 -4.878906 5.390625 -4.859375 L 5.34375 -4.59375 C 5.257812 -4.195312 5.210938 -3.972656 5.203125 -3.921875 L 4.6875 -1.125 C 4.675781 -1.039062 4.671875 -0.945312 4.671875 -0.84375 C 4.671875 -0.613281 4.738281 -0.5 4.875 -0.5 C 5.050781 -0.5 5.296875 -0.664062 5.609375 -1 Z M 5.609375 -1 "/></g></g></g><g fill="#0b0c52" fill-opacity="1"><g transform="translate(237.603735, 262.564788)"><g><path d="M 1.1875 0.109375 C 0.78125 0.109375 0.578125 -0.128906 0.578125 -0.609375 C 0.578125 -0.773438 0.59375 -0.945312 0.625 -1.125 L 1.78125 -7.40625 C 1.8125 -7.570312 1.828125 -7.710938 1.828125 -7.828125 C 1.828125 -8.066406 1.742188 -8.1875 1.578125 -8.1875 C 1.484375 -8.1875 1.3125 -8.128906 1.0625 -8.015625 L 1.046875 -8.015625 C 1.003906 -8.015625 0.976562 -8.035156 0.96875 -8.078125 C 0.957031 -8.128906 0.96875 -8.15625 1 -8.15625 L 2.953125 -9.125 L 2.984375 -9.125 C 3.015625 -9.125 3.046875 -9.109375 3.078125 -9.078125 C 3.109375 -9.054688 3.117188 -9.035156 3.109375 -9.015625 L 1.703125 -1.125 C 1.671875 -1 1.65625 -0.894531 1.65625 -0.8125 C 1.65625 -0.625 1.71875 -0.53125 1.84375 -0.53125 C 1.925781 -0.53125 2.019531 -0.566406 2.125 -0.640625 C 2.238281 -0.710938 2.367188 -0.820312 2.515625 -0.96875 C 2.535156 -0.988281 2.550781 -1 2.5625 -1 C 2.59375 -1 2.613281 -0.984375 2.625 -0.953125 C 2.644531 -0.921875 2.640625 -0.894531 2.609375 -0.875 C 2.328125 -0.53125 2.078125 -0.28125 1.859375 -0.125 C 1.640625 0.03125 1.414062 0.109375 1.1875 0.109375 Z M 1.1875 0.109375 "/></g></g></g><g fill="#0b0c52" fill-opacity="1"><g transform="translate(244.484025, 262.564788)"><g><path d="M 3.828125 -4.859375 C 3.878906 -4.859375 3.90625 -4.816406 3.90625 -4.734375 C 3.90625 -4.671875 3.859375 -4.570312 3.765625 -4.4375 C 3.671875 -4.300781 3.582031 -4.234375 3.5 -4.234375 C 3.46875 -4.234375 3.328125 -4.253906 3.078125 -4.296875 C 2.835938 -4.335938 2.5625 -4.367188 2.25 -4.390625 L 1.71875 -1.390625 C 1.707031 -1.253906 1.703125 -1.164062 1.703125 -1.125 C 1.703125 -0.914062 1.753906 -0.765625 1.859375 -0.671875 C 1.960938 -0.585938 2.125 -0.546875 2.34375 -0.546875 C 2.65625 -0.546875 3.003906 -0.695312 3.390625 -1 L 3.40625 -1 C 3.4375 -1 3.460938 -0.988281 3.484375 -0.96875 C 3.515625 -0.945312 3.519531 -0.921875 3.5 -0.890625 C 3.113281 -0.523438 2.769531 -0.257812 2.46875 -0.09375 C 2.175781 0.0703125 1.878906 0.15625 1.578125 0.15625 C 0.898438 0.15625 0.5625 -0.148438 0.5625 -0.765625 C 0.5625 -0.890625 0.578125 -1.03125 0.609375 -1.1875 L 1.09375 -3.84375 C 1.113281 -3.988281 1.125 -4.109375 1.125 -4.203125 C 1.125 -4.328125 1.09375 -4.410156 1.03125 -4.453125 C 0.96875 -4.492188 0.847656 -4.515625 0.671875 -4.515625 C 0.640625 -4.515625 0.625 -4.546875 0.625 -4.609375 C 0.625 -4.679688 0.640625 -4.71875 0.671875 -4.71875 C 1.335938 -4.71875 1.867188 -5.085938 2.265625 -5.828125 C 2.285156 -5.847656 2.316406 -5.859375 2.359375 -5.859375 C 2.398438 -5.859375 2.4375 -5.847656 2.46875 -5.828125 C 2.5 -5.816406 2.507812 -5.800781 2.5 -5.78125 L 2.3125 -4.75 C 2.550781 -4.757812 2.753906 -4.769531 2.921875 -4.78125 C 3.085938 -4.800781 3.226562 -4.8125 3.34375 -4.8125 C 3.5625 -4.84375 3.722656 -4.859375 3.828125 -4.859375 Z M 3.828125 -4.859375 "/></g></g></g><g fill="#0b0c52" fill-opacity="1"><g transform="translate(252.043328, 262.564788)"><g><path d="M 5.21875 -0.96875 C 5.226562 -0.976562 5.238281 -0.984375 5.25 -0.984375 C 5.28125 -0.984375 5.300781 -0.96875 5.3125 -0.9375 C 5.332031 -0.90625 5.335938 -0.882812 5.328125 -0.875 C 4.785156 -0.21875 4.3125 0.109375 3.90625 0.109375 C 3.6875 0.109375 3.523438 0.0507812 3.421875 -0.0625 C 3.328125 -0.1875 3.28125 -0.378906 3.28125 -0.640625 C 3.28125 -0.785156 3.296875 -0.945312 3.328125 -1.125 L 3.46875 -1.96875 C 3.15625 -1.300781 2.773438 -0.78125 2.328125 -0.40625 C 1.890625 -0.03125 1.460938 0.15625 1.046875 0.15625 C 0.785156 0.15625 0.578125 0.078125 0.421875 -0.078125 C 0.273438 -0.234375 0.203125 -0.472656 0.203125 -0.796875 C 0.203125 -1.359375 0.390625 -1.972656 0.765625 -2.640625 C 1.140625 -3.304688 1.597656 -3.867188 2.140625 -4.328125 C 2.691406 -4.785156 3.210938 -5.015625 3.703125 -5.015625 C 3.847656 -5.015625 4.003906 -4.988281 4.171875 -4.9375 C 4.335938 -4.882812 4.476562 -4.800781 4.59375 -4.6875 C 4.75 -4.8125 4.878906 -4.957031 4.984375 -5.125 C 4.992188 -5.132812 5.007812 -5.140625 5.03125 -5.140625 C 5.050781 -5.140625 5.070312 -5.128906 5.09375 -5.109375 C 5.125 -5.097656 5.132812 -5.085938 5.125 -5.078125 L 4.40625 -1.125 C 4.375 -1.007812 4.359375 -0.910156 4.359375 -0.828125 C 4.359375 -0.628906 4.421875 -0.53125 4.546875 -0.53125 C 4.703125 -0.53125 4.925781 -0.675781 5.21875 -0.96875 Z M 1.84375 -0.75 C 2.09375 -0.75 2.347656 -0.878906 2.609375 -1.140625 C 2.878906 -1.410156 3.113281 -1.734375 3.3125 -2.109375 C 3.507812 -2.492188 3.640625 -2.851562 3.703125 -3.1875 C 3.722656 -3.320312 3.734375 -3.445312 3.734375 -3.5625 C 3.734375 -3.832031 3.671875 -4.039062 3.546875 -4.1875 C 3.429688 -4.332031 3.265625 -4.40625 3.046875 -4.40625 C 2.660156 -4.40625 2.316406 -4.195312 2.015625 -3.78125 C 1.722656 -3.363281 1.515625 -2.820312 1.390625 -2.15625 C 1.347656 -1.894531 1.328125 -1.695312 1.328125 -1.5625 C 1.328125 -1.28125 1.375 -1.070312 1.46875 -0.9375 C 1.5625 -0.8125 1.6875 -0.75 1.84375 -0.75 Z M 1.84375 -0.75 "/></g></g></g><g fill="#0b0c52" fill-opacity="1"><g transform="translate(261.400738, 262.564788)"><g><path d="M 5.609375 -0.96875 C 5.628906 -0.988281 5.640625 -1 5.640625 -1 C 5.671875 -1 5.691406 -0.984375 5.703125 -0.953125 C 5.722656 -0.921875 5.722656 -0.894531 5.703125 -0.875 C 5.421875 -0.53125 5.164062 -0.28125 4.9375 -0.125 C 4.71875 0.03125 4.492188 0.109375 4.265625 0.109375 C 3.859375 0.109375 3.65625 -0.125 3.65625 -0.59375 C 3.65625 -0.71875 3.675781 -0.894531 3.71875 -1.125 L 4.09375 -3.125 C 4.132812 -3.351562 4.15625 -3.539062 4.15625 -3.6875 C 4.15625 -4.09375 4.019531 -4.296875 3.75 -4.296875 C 3.507812 -4.296875 3.265625 -4.144531 3.015625 -3.84375 C 2.765625 -3.539062 2.523438 -3.09375 2.296875 -2.5 C 2.078125 -1.914062 1.894531 -1.210938 1.75 -0.390625 L 1.703125 -0.15625 C 1.660156 0.0078125 1.425781 0.09375 1 0.09375 C 0.726562 0.09375 0.59375 0.0625 0.59375 0 L 0.640625 -0.265625 C 0.722656 -0.660156 0.769531 -0.882812 0.78125 -0.9375 L 1.296875 -3.734375 C 1.316406 -3.804688 1.328125 -3.898438 1.328125 -4.015625 C 1.328125 -4.242188 1.253906 -4.359375 1.109375 -4.359375 C 0.929688 -4.359375 0.6875 -4.1875 0.375 -3.84375 C 0.363281 -3.84375 0.351562 -3.84375 0.34375 -3.84375 C 0.3125 -3.84375 0.285156 -3.851562 0.265625 -3.875 C 0.253906 -3.90625 0.257812 -3.9375 0.28125 -3.96875 C 0.582031 -4.3125 0.851562 -4.5625 1.09375 -4.71875 C 1.332031 -4.882812 1.570312 -4.96875 1.8125 -4.96875 C 2.207031 -4.96875 2.40625 -4.742188 2.40625 -4.296875 C 2.40625 -4.171875 2.390625 -4.035156 2.359375 -3.890625 L 2.15625 -2.734375 C 2.457031 -3.472656 2.796875 -4.035156 3.171875 -4.421875 C 3.554688 -4.816406 3.960938 -5.015625 4.390625 -5.015625 C 4.960938 -5.015625 5.25 -4.664062 5.25 -3.96875 C 5.25 -3.8125 5.226562 -3.609375 5.1875 -3.359375 L 4.78125 -1.125 C 4.75 -1 4.734375 -0.894531 4.734375 -0.8125 C 4.734375 -0.625 4.800781 -0.53125 4.9375 -0.53125 C 5.019531 -0.53125 5.113281 -0.566406 5.21875 -0.640625 C 5.332031 -0.710938 5.460938 -0.820312 5.609375 -0.96875 Z M 5.609375 -0.96875 "/></g></g></g><g fill="#0b0c52" fill-opacity="1"><g transform="translate(271.147945, 262.564788)"><g><path d="M 3.828125 -4.859375 C 3.878906 -4.859375 3.90625 -4.816406 3.90625 -4.734375 C 3.90625 -4.671875 3.859375 -4.570312 3.765625 -4.4375 C 3.671875 -4.300781 3.582031 -4.234375 3.5 -4.234375 C 3.46875 -4.234375 3.328125 -4.253906 3.078125 -4.296875 C 2.835938 -4.335938 2.5625 -4.367188 2.25 -4.390625 L 1.71875 -1.390625 C 1.707031 -1.253906 1.703125 -1.164062 1.703125 -1.125 C 1.703125 -0.914062 1.753906 -0.765625 1.859375 -0.671875 C 1.960938 -0.585938 2.125 -0.546875 2.34375 -0.546875 C 2.65625 -0.546875 3.003906 -0.695312 3.390625 -1 L 3.40625 -1 C 3.4375 -1 3.460938 -0.988281 3.484375 -0.96875 C 3.515625 -0.945312 3.519531 -0.921875 3.5 -0.890625 C 3.113281 -0.523438 2.769531 -0.257812 2.46875 -0.09375 C 2.175781 0.0703125 1.878906 0.15625 1.578125 0.15625 C 0.898438 0.15625 0.5625 -0.148438 0.5625 -0.765625 C 0.5625 -0.890625 0.578125 -1.03125 0.609375 -1.1875 L 1.09375 -3.84375 C 1.113281 -3.988281 1.125 -4.109375 1.125 -4.203125 C 1.125 -4.328125 1.09375 -4.410156 1.03125 -4.453125 C 0.96875 -4.492188 0.847656 -4.515625 0.671875 -4.515625 C 0.640625 -4.515625 0.625 -4.546875 0.625 -4.609375 C 0.625 -4.679688 0.640625 -4.71875 0.671875 -4.71875 C 1.335938 -4.71875 1.867188 -5.085938 2.265625 -5.828125 C 2.285156 -5.847656 2.316406 -5.859375 2.359375 -5.859375 C 2.398438 -5.859375 2.4375 -5.847656 2.46875 -5.828125 C 2.5 -5.816406 2.507812 -5.800781 2.5 -5.78125 L 2.3125 -4.75 C 2.550781 -4.757812 2.753906 -4.769531 2.921875 -4.78125 C 3.085938 -4.800781 3.226562 -4.8125 3.34375 -4.8125 C 3.5625 -4.84375 3.722656 -4.859375 3.828125 -4.859375 Z M 3.828125 -4.859375 "/></g></g></g><g fill="#0b0c52" fill-opacity="1"><g transform="translate(278.707248, 262.564788)"><g><path d="M 1.359375 0.140625 C 0.992188 0.140625 0.6875 0.0625 0.4375 -0.09375 C 0.1875 -0.257812 0.0625 -0.453125 0.0625 -0.671875 C 0.0625 -0.867188 0.113281 -1.019531 0.21875 -1.125 C 0.332031 -1.226562 0.46875 -1.28125 0.625 -1.28125 C 0.769531 -1.28125 0.882812 -1.242188 0.96875 -1.171875 C 1.050781 -1.097656 1.144531 -0.976562 1.25 -0.8125 C 1.363281 -0.632812 1.46875 -0.503906 1.5625 -0.421875 C 1.65625 -0.335938 1.789062 -0.296875 1.96875 -0.296875 C 2.101562 -0.296875 2.207031 -0.332031 2.28125 -0.40625 C 2.351562 -0.488281 2.398438 -0.617188 2.421875 -0.796875 C 2.429688 -0.828125 2.4375 -0.875 2.4375 -0.9375 C 2.4375 -1.1875 2.363281 -1.398438 2.21875 -1.578125 C 2.082031 -1.753906 1.863281 -1.957031 1.5625 -2.1875 C 1.257812 -2.4375 1.035156 -2.648438 0.890625 -2.828125 C 0.742188 -3.015625 0.671875 -3.234375 0.671875 -3.484375 C 0.671875 -3.535156 0.675781 -3.609375 0.6875 -3.703125 C 0.726562 -3.921875 0.832031 -4.125 1 -4.3125 C 1.175781 -4.507812 1.398438 -4.671875 1.671875 -4.796875 C 1.953125 -4.921875 2.25 -4.984375 2.5625 -4.984375 C 2.96875 -4.984375 3.28125 -4.914062 3.5 -4.78125 C 3.726562 -4.644531 3.828125 -4.457031 3.796875 -4.21875 C 3.773438 -4.0625 3.707031 -3.9375 3.59375 -3.84375 C 3.476562 -3.75 3.359375 -3.703125 3.234375 -3.703125 C 3.054688 -3.703125 2.925781 -3.742188 2.84375 -3.828125 C 2.757812 -3.910156 2.679688 -4.023438 2.609375 -4.171875 C 2.535156 -4.328125 2.460938 -4.441406 2.390625 -4.515625 C 2.316406 -4.585938 2.195312 -4.625 2.03125 -4.625 C 1.894531 -4.625 1.785156 -4.582031 1.703125 -4.5 C 1.628906 -4.425781 1.585938 -4.335938 1.578125 -4.234375 C 1.566406 -4.203125 1.5625 -4.15625 1.5625 -4.09375 C 1.5625 -3.875 1.628906 -3.675781 1.765625 -3.5 C 1.910156 -3.332031 2.128906 -3.132812 2.421875 -2.90625 C 2.742188 -2.644531 2.976562 -2.421875 3.125 -2.234375 C 3.28125 -2.046875 3.359375 -1.828125 3.359375 -1.578125 C 3.359375 -1.535156 3.347656 -1.460938 3.328125 -1.359375 C 3.285156 -1.128906 3.175781 -0.898438 3 -0.671875 C 2.820312 -0.441406 2.585938 -0.25 2.296875 -0.09375 C 2.015625 0.0625 1.703125 0.140625 1.359375 0.140625 Z M 1.359375 0.140625 "/></g></g></g></svg>